<svg width="40" height="37" viewBox="0 0 40 37" fill="none" xmlns="http://www.w3.org/2000/svg">
<circle cx="17.5" cy="19.5" r="17.5" fill="#58CC02"/>
<circle cx="17.5" cy="19.5" r="6" fill="#ECFFDE"/>
<circle cx="17.5" cy="19.5" r="11.5" stroke="#ECFFDE" stroke-width="4"/>
<path d="M26.0763 5.57259L26.924 11.9302C26.9711 12.283 27.2021 12.5842 27.5306 12.7211L32.4587 14.7745C32.7929 14.9137 33.1764 14.8614 33.4611 14.6377L38.6591 10.5535C39.2597 10.0817 39.131 9.1379 38.4259 8.84414L34.4834 7.20144C34.1807 7.07527 33.959 6.80863 33.8903 6.48789L32.8319 1.54894C32.6779 0.830174 31.827 0.517657 31.2444 0.965845L26.4579 4.6478C26.1746 4.86573 26.0291 5.21829 26.0763 5.57259Z" fill="#58A700"/>
<path d="M17.5 19.5L34 7" stroke="#478700" stroke-width="2.5" stroke-linecap="round"/>
</svg>
