<svg width="898" height="597" viewBox="0 0 898 597" fill="none" xmlns="http://www.w3.org/2000/svg">
<path opacity="0.47" d="M705.753 314.013C693.791 445.05 582.976 573.814 436.969 572.579C296.596 571.393 191.267 450.584 174.462 328.391C152.961 172.006 274.799 1.29238 436.969 0.00770438C594.74 -1.27697 719.988 158.319 705.753 314.013Z" fill="url(#paint0_linear_2_490)"/>
<path opacity="0.47" d="M516.128 337.428C529.645 357.616 605.862 471.224 565.213 528.027C494.57 626.692 80.6749 540.595 40.9627 351.579C28.827 293.737 51.6184 225.75 96.3625 189.877C198.282 108.184 417.365 190.223 516.078 337.428H516.128Z" fill="url(#paint1_linear_2_490)"/>
<path opacity="0.47" d="M503.758 541.775C479.732 538.617 344.36 520.654 328.869 452.654C301.932 334.518 640.363 81.1714 807.901 176.263C859.159 205.377 894.828 267.357 892.016 324.599C885.553 454.974 679.189 564.968 503.807 541.726L503.758 541.775Z" fill="url(#paint2_linear_2_490)"/>
<path d="M210.294 449.547C166.364 468.94 116.646 466.522 107.197 410.021C105.96 405.283 104.822 403.655 104.278 403.408C101.409 401.829 98.7868 401.434 93.6418 401.434C75.9312 401.977 54.3618 407.997 35.3154 400.497C-19.0037 379.229 -0.501494 305.407 23.6403 268.101C49.6126 230.252 105.416 265.387 82.3129 305.061C72.0724 317.743 65.5917 333.88 63.6128 348.733C63.0687 347.598 60.7435 344.933 59.1605 344.242C58.5668 343.847 57.7258 343.798 57.6269 343.65C57.3795 343.551 56.8353 343.65 57.231 343.699C68.9062 346.068 83.0055 342.811 97.1542 344.637C115.904 345.92 137.374 355.197 148.653 372.814C157.311 385.15 158.746 401.681 160.526 411.304C160.526 411.698 160.527 411.205 160.279 411.353C160.23 411.106 159.834 411.008 159.686 410.86C159.24 410.564 159.141 410.761 159.587 411.106C160.526 411.847 163.247 412.636 166.908 412.784C174.428 413.13 184.866 410.909 194.859 407.603C222.316 399.51 236.464 438.049 210.294 449.596V449.547Z" fill="#38CB6E"/>
<path d="M702.279 389.566C715.041 392.818 727.95 395.972 738.585 392.326C739.327 391.882 739.624 391.537 739.277 391.586C738.882 391.685 738.09 392.424 737.744 392.72C738.239 385.624 740.662 368.87 748.824 357.488C754.71 348.668 763.662 341.769 773.159 337.236C791.807 327.627 820.594 330.042 835.73 329.598C839.786 329.45 842.457 328.416 840.676 328.662C838.005 329.155 835.285 332.259 834.394 334.427C833.553 336.398 833.9 335.216 833.108 332.407C830.635 322.503 825.293 310.085 817.132 301.462C788.295 265.836 838.153 222.72 869.513 256.178C894.195 288.158 916.008 351.082 874.162 380.155C848.095 397.499 820.94 384.343 795.418 387.792C793.785 388.383 792.895 388.778 792.796 388.581C792.549 388.433 791.559 389.172 790.372 394.247C790.026 395.725 789.086 399.47 788.74 400.899C785.97 412.824 779.194 425.192 768.609 432.041C744.075 448.499 711.924 440.664 688.133 431.795C661.423 421.102 674.58 381.978 702.329 389.418L702.279 389.566Z" fill="#38CB6E"/>
<path d="M719.099 457.656C699.053 541.874 540.556 569.914 459.579 572.382C358.802 575.443 192.208 544.589 171.914 457.656C150.485 366.032 293.824 221.982 445.507 221.933C597.535 221.933 740.775 366.575 719.099 457.656Z" fill="#38CB6E"/>
<path d="M430.834 547.958C467.151 520.947 434.888 416.088 358.773 313.748C282.658 211.409 191.514 150.342 155.197 177.353C118.88 204.364 151.143 309.223 227.258 411.563C303.373 513.902 394.517 574.969 430.834 547.958Z" fill="#38CB6E"/>
<path d="M445.531 544.846C490.575 544.846 527.091 441.26 527.091 313.48C527.091 185.701 490.575 82.1152 445.531 82.1152C400.486 82.1152 363.97 185.701 363.97 313.48C363.97 441.26 400.486 544.846 445.531 544.846Z" fill="#38CB6E"/>
<path d="M664.248 411.697C740.363 309.358 772.625 204.499 736.309 177.488C699.992 150.477 608.848 211.544 532.733 313.883C456.618 416.223 424.355 521.082 460.672 548.093C496.989 575.103 588.133 514.037 664.248 411.697Z" fill="#38CB6E"/>
<path d="M402.809 444.976C405.821 448.099 421.082 463.108 445.531 463.813C469.126 464.518 484.839 451.372 488.253 448.401" stroke="#3E3D4D" stroke-width="9" stroke-miterlimit="10" stroke-linecap="round"/>
<path d="M348.393 342.48C354.444 324.143 376.666 318.814 391.001 332.159C396.16 336.96 404.096 329.375 398.888 324.527C378.452 305.469 346.26 313.486 337.629 339.6C335.446 346.225 346.21 349.057 348.393 342.48Z" fill="#3E3D4D"/>
<path d="M369.282 410.041C375.228 391.071 397.06 385.559 411.143 399.364C416.211 404.33 424.008 396.484 418.892 391.468C398.814 371.753 367.187 380.047 358.707 407.061C356.563 413.914 367.138 416.844 369.282 410.041Z" fill="#3E3D4D"/>
<path d="M475.797 396.302C489.544 381.883 512.862 385.4 520.091 404.541C522.637 411.274 533.736 408.36 531.139 401.527C521.058 374.899 487.813 367.213 467.651 388.314C462.611 393.589 470.706 401.627 475.747 396.302H475.797Z" fill="#3E3D4D"/>
<path d="M504.287 329.269C519.171 313.223 543.418 320.774 547.361 342.186C548.691 349.24 559.336 346.259 558.055 339.205C552.584 309.596 516.707 299.511 496.452 321.37C491.573 326.636 499.409 334.535 504.287 329.269Z" fill="#3E3D4D"/>
<defs>
<linearGradient id="paint0_linear_2_490" x1="439.391" y1="-0.0417063" x2="439.391" y2="572.579" gradientUnits="userSpaceOnUse">
<stop stop-color="white"/>
<stop offset="1" stop-color="#FFA23F"/>
</linearGradient>
<linearGradient id="paint1_linear_2_490" x1="77.2716" y1="208.271" x2="545.165" y2="555.221" gradientUnits="userSpaceOnUse">
<stop stop-color="white"/>
<stop offset="1" stop-color="#FFA23F"/>
</linearGradient>
<linearGradient id="paint2_linear_2_490" x1="891.002" y1="298.139" x2="321.628" y2="417.99" gradientUnits="userSpaceOnUse">
<stop stop-color="white"/>
<stop offset="1" stop-color="#FFA23F"/>
</linearGradient>
</defs>
</svg>
